<svg width="19" height="20" viewBox="0 0 19 20" fill="none" xmlns="http://www.w3.org/2000/svg">
<path d="M2.17536 15.4199C1.6656 15.4199 1.25837 15.2822 0.953683 15.0068C0.654855 14.7314 0.505441 14.3682 0.505441 13.917C0.505441 13.583 0.581613 13.2695 0.733956 12.9766C0.8863 12.6777 1.08552 12.3994 1.33161 12.1416C1.57771 11.8779 1.83845 11.623 2.11384 11.377C2.34235 11.1836 2.51521 10.9199 2.63239 10.5859C2.75544 10.252 2.84919 9.87402 2.91364 9.45215C2.9781 9.03027 3.04255 8.58789 3.107 8.125C3.18318 7.12891 3.3531 6.22949 3.61677 5.42676C3.88044 4.61816 4.25251 3.93555 4.73298 3.37891C5.21345 2.81641 5.81696 2.40625 6.54353 2.14844C6.7486 1.55664 7.09431 1.07031 7.58064 0.689453C8.06696 0.302734 8.63532 0.109375 9.28571 0.109375C9.9361 0.109375 10.5045 0.302734 10.9908 0.689453C11.4771 1.07031 11.8228 1.55664 12.0279 2.14844C12.7545 2.40625 13.358 2.81641 13.8384 3.37891C14.3189 3.93555 14.691 4.61816 14.9547 5.42676C15.2242 6.22949 15.397 7.12891 15.4732 8.125C15.5318 8.58789 15.5933 9.03027 15.6578 9.45215C15.7281 9.87402 15.8218 10.252 15.939 10.5859C16.0621 10.9199 16.2349 11.1836 16.4576 11.377C16.733 11.623 16.9937 11.8779 17.2398 12.1416C17.4859 12.3994 17.6851 12.6777 17.8375 12.9766C17.9957 13.2695 18.0748 13.583 18.0748 13.917C18.0748 14.3682 17.9224 14.7314 17.6177 15.0068C17.3131 15.2822 16.9058 15.4199 16.3961 15.4199H2.17536ZM9.28571 19.208C8.73493 19.208 8.23982 19.0908 7.80036 18.8564C7.36677 18.6279 7.01814 18.3232 6.75446 17.9424C6.49079 17.5615 6.34138 17.1455 6.30622 16.6943H12.2652C12.2301 17.1455 12.0806 17.5615 11.817 17.9424C11.5533 18.3232 11.2017 18.6279 10.7623 18.8564C10.3287 19.0908 9.8365 19.208 9.28571 19.208Z" fill="white"/>
</svg>
