<svg width="17" height="18" viewBox="0 0 17 18" fill="none" xmlns="http://www.w3.org/2000/svg">
<path d="M8.28571 17.5815C7.69913 17.5815 7.17894 17.4404 6.72517 17.1582C6.27139 16.8815 5.90892 16.5163 5.63776 16.0625C5.37214 15.6087 5.22826 15.1134 5.20612 14.5767H1.7115C1.31306 14.5767 1.00316 14.4854 0.781808 14.3027C0.560454 14.1201 0.449777 13.8766 0.449777 13.5723C0.449777 13.2956 0.530018 13.0272 0.690499 12.7671C0.850981 12.507 1.0502 12.2524 1.28816 12.0034C1.53165 11.7544 1.77513 11.5054 2.01862 11.2563C2.20124 11.0682 2.34235 10.8219 2.44196 10.5176C2.54157 10.2132 2.61628 9.88949 2.66609 9.54639C2.71589 9.20329 2.75186 8.87126 2.774 8.55029C2.77953 8.05778 2.80443 7.59294 2.8487 7.15576C2.89851 6.71859 2.96768 6.31185 3.05622 5.93555L4.21833 7.09766C4.18513 7.33008 4.15746 7.57633 4.13532 7.83643C4.11319 8.09652 4.09935 8.37044 4.09382 8.6582C4.07722 9.06217 4.04678 9.43294 4.00251 9.77051C3.95824 10.1081 3.89737 10.4152 3.81989 10.6919C3.74242 10.9686 3.64834 11.2176 3.53767 11.439C3.42699 11.6548 3.29694 11.8457 3.14753 12.0117C3.00365 12.1722 2.857 12.3299 2.70759 12.4849C2.55818 12.6398 2.42536 12.7837 2.30915 12.9165C2.19847 13.0438 2.11823 13.1462 2.06843 13.2236V13.3232H10.4439L11.88 14.7593H11.3404C11.2906 15.2739 11.1301 15.7443 10.859 16.1704C10.5878 16.5965 10.2309 16.9368 9.78816 17.1914C9.34545 17.4515 8.84463 17.5815 8.28571 17.5815ZM8.28571 16.4111C8.78376 16.4111 9.19603 16.2451 9.52253 15.9131C9.85456 15.5866 10.0344 15.1411 10.0621 14.5767H6.50105C6.53425 15.1411 6.7141 15.5866 7.0406 15.9131C7.36709 16.2451 7.78213 16.4111 8.28571 16.4111ZM4.72468 3.00537C4.89069 2.87256 5.07054 2.75358 5.26423 2.64844C5.45791 2.53776 5.66543 2.44645 5.88679 2.37451C6.02513 1.83219 6.30459 1.37288 6.72517 0.996582C7.15127 0.62028 7.67146 0.432129 8.28571 0.432129C8.89444 0.432129 9.40909 0.62028 9.82966 0.996582C10.2558 1.37288 10.5408 1.83219 10.6846 2.37451C11.7914 2.77295 12.5855 3.50895 13.067 4.58252C13.5484 5.65609 13.8002 7.07552 13.8223 8.84082C13.8334 9.13411 13.8583 9.40804 13.897 9.6626C13.9358 9.91715 13.9911 10.1579 14.0631 10.3848C14.1405 10.6061 14.2374 10.8192 14.3536 11.0239C14.4753 11.2231 14.622 11.4168 14.7935 11.605C15.0924 11.9093 15.3801 12.2192 15.6568 12.5347C15.939 12.8446 16.0801 13.1655 16.0801 13.4976C16.0801 13.7355 16.0082 13.9375 15.8643 14.1035L12.9176 11.0654C12.8179 10.8773 12.7405 10.6808 12.6851 10.4761C12.6353 10.2658 12.5966 10.0306 12.5689 9.77051C12.5412 9.51042 12.5191 9.21159 12.5025 8.87402C12.4859 7.6123 12.3614 6.61344 12.129 5.87744C11.8966 5.1359 11.5867 4.58529 11.1993 4.22559C10.8175 3.86589 10.3858 3.61963 9.90437 3.48682C9.79922 3.46468 9.71898 3.42594 9.66364 3.37061C9.60831 3.30973 9.57787 3.22673 9.57234 3.12158C9.55573 2.68994 9.43122 2.33854 9.1988 2.06738C8.97191 1.79069 8.66755 1.65234 8.28571 1.65234C7.89834 1.65234 7.58845 1.79069 7.35603 2.06738C7.12914 2.33854 7.00739 2.68994 6.99079 3.12158C6.99079 3.22673 6.96036 3.30973 6.89948 3.37061C6.84415 3.42594 6.76667 3.46468 6.66706 3.48682C6.48444 3.53662 6.31013 3.60026 6.14411 3.67773C5.98363 3.75521 5.82868 3.84928 5.67927 3.95996L4.72468 3.00537ZM0.615792 2.11719C0.494047 1.99544 0.433175 1.84603 0.433175 1.66895C0.433175 1.48633 0.494047 1.33415 0.615792 1.2124C0.743071 1.09066 0.895252 1.02979 1.07234 1.02979C1.25495 1.02979 1.40713 1.09066 1.52888 1.2124L16.4371 16.1123C16.5588 16.234 16.6197 16.3835 16.6197 16.5605C16.6197 16.7376 16.5588 16.8898 16.4371 17.0171C16.3153 17.1388 16.1632 17.1997 15.9805 17.1997C15.8035 17.1997 15.654 17.1388 15.5323 17.0171L0.615792 2.11719Z" fill="black"/>
</svg>
