<svg width="32" height="8" viewBox="0 0 32 8" fill="none" xmlns="http://www.w3.org/2000/svg">
<path d="M4.61426 7.71484C4.09668 7.71484 3.61165 7.61882 3.15918 7.42676C2.70996 7.23145 2.31283 6.96289 1.96777 6.62109C1.62598 6.27604 1.35742 5.87728 1.16211 5.4248C0.970052 4.97233 0.874023 4.48893 0.874023 3.97461C0.874023 3.45703 0.970052 2.97363 1.16211 2.52441C1.35742 2.07194 1.62598 1.6748 1.96777 1.33301C2.31283 0.987956 2.70996 0.719401 3.15918 0.527344C3.61165 0.332031 4.09668 0.234375 4.61426 0.234375C5.12858 0.234375 5.61198 0.332031 6.06445 0.527344C6.51693 0.719401 6.91406 0.987956 7.25586 1.33301C7.60091 1.6748 7.86947 2.07194 8.06152 2.52441C8.25684 2.97363 8.35449 3.45703 8.35449 3.97461C8.35449 4.48893 8.25684 4.97233 8.06152 5.4248C7.86947 5.87728 7.60091 6.27604 7.25586 6.62109C6.91406 6.96289 6.51693 7.23145 6.06445 7.42676C5.61198 7.61882 5.12858 7.71484 4.61426 7.71484ZM16.0553 7.71484C15.5377 7.71484 15.0527 7.61882 14.6002 7.42676C14.151 7.23145 13.7538 6.96289 13.4088 6.62109C13.067 6.27604 12.7984 5.87728 12.6031 5.4248C12.4111 4.97233 12.315 4.48893 12.315 3.97461C12.315 3.45703 12.4111 2.97363 12.6031 2.52441C12.7984 2.07194 13.067 1.6748 13.4088 1.33301C13.7538 0.987956 14.151 0.719401 14.6002 0.527344C15.0527 0.332031 15.5377 0.234375 16.0553 0.234375C16.5696 0.234375 17.053 0.332031 17.5055 0.527344C17.9579 0.719401 18.3551 0.987956 18.6969 1.33301C19.0419 1.6748 19.3105 2.07194 19.5025 2.52441C19.6979 2.97363 19.7955 3.45703 19.7955 3.97461C19.7955 4.48893 19.6979 4.97233 19.5025 5.4248C19.3105 5.87728 19.0419 6.27604 18.6969 6.62109C18.3551 6.96289 17.9579 7.23145 17.5055 7.42676C17.053 7.61882 16.5696 7.71484 16.0553 7.71484ZM27.4963 7.71484C26.9787 7.71484 26.4937 7.61882 26.0412 7.42676C25.592 7.23145 25.1949 6.96289 24.8498 6.62109C24.508 6.27604 24.2395 5.87728 24.0441 5.4248C23.8521 4.97233 23.7561 4.48893 23.7561 3.97461C23.7561 3.45703 23.8521 2.97363 24.0441 2.52441C24.2395 2.07194 24.508 1.6748 24.8498 1.33301C25.1949 0.987956 25.592 0.719401 26.0412 0.527344C26.4937 0.332031 26.9787 0.234375 27.4963 0.234375C28.0106 0.234375 28.494 0.332031 28.9465 0.527344C29.399 0.719401 29.7961 0.987956 30.1379 1.33301C30.4829 1.6748 30.7515 2.07194 30.9436 2.52441C31.1389 2.97363 31.2365 3.45703 31.2365 3.97461C31.2365 4.48893 31.1389 4.97233 30.9436 5.4248C30.7515 5.87728 30.4829 6.27604 30.1379 6.62109C29.7961 6.96289 29.399 7.23145 28.9465 7.42676C28.494 7.61882 28.0106 7.71484 27.4963 7.71484Z" fill="#3C3C43" fill-opacity="0.6"/>
</svg>
